<?xml version="1.0" encoding="utf-8"?>
<!-- Generator: Adobe Illustrator 26.3.1, SVG Export Plug-In . SVG Version: 6.00 Build 0)  -->
<svg version="1.1" id="Layer_1" xmlns="http://www.w3.org/2000/svg" xmlns:xlink="http://www.w3.org/1999/xlink" x="0px" y="0px"
	 viewBox="0 0 2100 600" style="enable-background:new 0 0 2100 600;" xml:space="preserve">
<style type="text/css">
	.st0{fill:#091D3F;}
	.st1{display:none;}
	.st2{display:inline;}
	.st3{fill:#309EFF;}
</style>
<g>
	<g>
		<path class="st0" d="M635.8,267v-32h114.1v32H635.8z M723,407.1c-18.8,0-33.3-4.9-43.6-14.6s-15.4-24-15.4-42.8V195.9h39.7v152.6
			c0,8.1,2.1,14.4,6.4,18.9c4.3,4.5,10.3,6.7,17.9,6.7c8.8,0,16-2.3,21.8-7.1l11.5,28.5c-4.9,3.8-10.8,6.7-17.6,8.7
			C737,406.1,730,407.1,723,407.1z"/>
		<path class="st0" d="M794.8,404.9V233.7h38.1v47.1l-4.5-13.8c4.9-11.5,12.9-20.4,24-26.4c11.1-6.1,24.7-9.1,40.7-9.1v38.1
			c-1.5-0.2-3-0.4-4.5-0.5s-2.9-0.2-4.2-0.2c-15.4,0-27.6,4.4-36.5,13.1c-9,8.8-13.5,22.1-13.5,40.1v82.7h-39.6V404.9z"/>
		<path class="st0" d="M980.6,407.1c-12.8,0-24-2.2-33.7-6.6c-9.6-4.4-17-10.5-22.3-18.3c-5.2-7.8-7.9-16.6-7.9-26.4
			c0-9.6,2.3-18.3,6.9-26c4.6-7.7,12.1-13.8,22.6-18.3s24.4-6.7,41.7-6.7h49.7v26.6h-46.8c-13.5,0-22.6,2.2-27.4,6.6
			c-4.8,4.4-7.2,9.9-7.2,16.5c0,7.1,2.9,12.7,8.7,17s13.8,6.4,24,6.4c9.8,0,18.6-2.2,26.4-6.7c7.8-4.5,13.5-11.1,17.1-19.9l6.4,24
			c-3.8,10-10.7,17.8-20.5,23.4C1008.6,404.3,996,407.1,980.6,407.1z M1034.5,404.9V370l-1.9-7.1v-60.6c0-11.7-3.6-20.9-10.7-27.4
			c-7.2-6.5-18-9.8-32.5-9.8c-9.4,0-18.7,1.5-27.9,4.5s-17.1,7.2-23.7,12.5L922,252.9c9.4-7.1,20.4-12.4,33-16s25.7-5.4,39.4-5.4
			c25,0,44.2,6,57.7,17.9c13.5,12,20.2,30.3,20.2,55.1v100.3h-37.8V404.9z"/>
		<path class="st0" d="M1169.1,404.9l-73.4-171.1h41.3l63.5,151H1180l65.4-151h38.5l-73.4,171.1H1169.1z"/>
		<path class="st0" d="M1389.3,407.1c-19,0-35.6-3.8-49.8-11.4c-14.2-7.6-25.2-17.9-33-31.1c-7.8-13.1-11.7-28.3-11.7-45.3
			c0-17.1,3.8-32.2,11.4-45.3c7.6-13.1,18.1-23.5,31.4-31.1c13.4-7.6,28.6-11.4,45.7-11.4c16.7,0,31.5,3.7,44.5,11.1
			c13,7.4,23.3,17.7,30.8,30.9c7.5,13.2,11.2,29,11.2,47.1c0,1.5-0.1,3.4-0.2,5.6s-0.3,4.2-0.5,5.9h-142.6v-26.6H1448l-16,8.3
			c0.2-9.6-1.8-18.2-5.9-25.8c-4.2-7.6-9.9-13.5-17.1-17.6c-7.3-4.2-15.8-6.2-25.6-6.2c-9.6,0-18.2,2.1-25.8,6.2
			c-7.6,4.2-13.4,10.1-17.5,17.8c-4.1,7.7-6.1,16.6-6.1,26.6v6.4c0,10.3,2.3,19.3,6.9,27.2c4.6,7.9,11.2,14.1,19.7,18.4
			c8.5,4.4,18.5,6.6,29.8,6.6c9.6,0,18.3-1.6,26-4.8c7.7-3.2,14.5-7.9,20.5-14.1l21.8,25c-7.9,9-17.7,15.8-29.3,20.5
			C1417.5,404.7,1404.2,407.1,1389.3,407.1z"/>
		<path class="st0" d="M1508.5,404.9V167.1h39.7v237.8L1508.5,404.9L1508.5,404.9z"/>
		<path class="st0" d="M1578,267v-32h114.1v32H1578z M1606.2,404.9V224.4c0-18.2,5.3-32.6,15.9-43.4c10.6-10.8,25.7-16.2,45.3-16.2
			c7.1,0,13.7,0.8,20,2.2c6.3,1.5,11.6,3.8,15.9,7.1l-11.2,29.8c-2.8-1.9-6.1-3.5-9.9-4.8s-7.8-1.9-11.9-1.9
			c-8.3,0-14.6,2.3-18.9,6.9c-4.3,4.6-6.4,11.4-6.4,20.4v19.9l1,17.6v142.9H1606.2z"/>
		<path class="st0" d="M1796,407.1c-17.3,0-32.8-3.8-46.6-11.4c-13.8-7.6-24.6-18-32.5-31.2s-11.9-28.3-11.9-45.2
			c0-17.3,4-32.5,11.9-45.5s18.7-23.3,32.4-30.9c13.7-7.6,29.3-11.4,46.8-11.4c17.7,0,33.5,3.8,47.3,11.4
			c13.8,7.6,24.6,17.9,32.4,30.9s11.7,28.2,11.7,45.5c0,17.1-3.9,32.2-11.7,45.3c-7.8,13.1-18.6,23.5-32.5,31.1
			C1829.2,403.3,1813.5,407.1,1796,407.1z M1796,373.1c9.8,0,18.6-2.2,26.3-6.6c7.7-4.4,13.7-10.7,18.1-18.9
			c4.4-8.2,6.6-17.7,6.6-28.4c0-10.9-2.2-20.4-6.6-28.4s-10.4-14.2-18.1-18.6s-16.3-6.6-26-6.6c-9.6,0-18.3,2.2-26,6.6
			s-13.8,10.6-18.3,18.6s-6.7,17.5-6.7,28.4c0,10.7,2.2,20.1,6.7,28.4c4.5,8.2,10.6,14.5,18.3,18.9
			C1778,370.9,1786.6,373.1,1796,373.1z"/>
		<path class="st0" d="M1902.4,404.9l75-98.1l-0.3,21.2l-72.1-94.2h44.9l50.3,67h-17l50.6-67h43.3l-72.4,94.5l0.3-21.5l75.3,98.1
			h-45.5l-52.9-71.5l17,2.2l-51.9,69.2h-44.6V404.9z"/>
	</g>
</g>
<g id="unedited">
	<g id="unedited_00000178195407930380411900000006796302650680722104_" class="st1">
		<path class="st2" d="M689,116.5V91.2h108.3v25.3H689z M771.7,262.9c-17.1,0-30.3-4.6-39.7-13.8s-14.1-22.3-14.1-39.4V54h30.8
			v154.5c0,9.2,2.3,16.2,6.9,21.2c4.6,4.9,11.2,7.4,19.7,7.4c9.6,0,17.6-2.7,24-8l9.6,22.1c-4.7,4.1-10.3,7.1-16.8,9
			C785.5,262,778.8,262.9,771.7,262.9z"/>
		<path class="st2" d="M846,261V91.2h29.5v46.2l-2.9-11.5c4.7-11.7,12.6-20.7,23.7-26.9c11.1-6.2,24.8-9.3,41-9.3v29.8
			c-1.3-0.2-2.5-0.3-3.7-0.3s-2.3,0-3.4,0c-16.5,0-29.5,4.9-39.1,14.7s-14.4,24-14.4,42.6V261H846z"/>
		<path class="st2" d="M1027.1,262.9c-12.6,0-23.7-2.1-33.2-6.4c-9.5-4.3-16.8-10.2-22-17.8c-5.1-7.6-7.7-16.2-7.7-25.8
			c0-9.2,2.2-17.5,6.6-25c4.4-7.5,11.5-13.5,21.5-17.9c9.9-4.5,23.3-6.7,40.2-6.7h53.8v22.1h-52.6c-15.4,0-25.7,2.6-31.1,7.7
			c-5.3,5.1-8,11.3-8,18.6c0,8.3,3.3,15,9.9,20c6.6,5,15.8,7.5,27.6,7.5c11.5,0,21.6-2.6,30.3-7.7c8.7-5.1,14.9-12.6,18.7-22.4
			l6.1,21.2c-4.1,10-11.2,18-21.5,23.9C1055.6,260,1042.7,262.9,1027.1,262.9z M1082.9,261v-35.9l-1.6-6.7v-61.2
			c0-13-3.8-23.1-11.4-30.3s-19-10.7-34.1-10.7c-10,0-19.9,1.7-29.5,5s-17.7,7.7-24.4,13.3l-12.8-23.1c8.8-7.1,19.3-12.4,31.6-16.2
			c12.3-3.7,25.2-5.6,38.6-5.6c23.3,0,41.2,5.7,53.8,17c12.6,11.3,18.9,28.6,18.9,51.9V261H1082.9z"/>
		<path class="st2" d="M1213.6,261l-74.4-169.9h32l66,153.8H1222l67.3-153.8h30.1L1245.1,261H1213.6z"/>
		<path class="st2" d="M1423.9,262.9c-18.2,0-34.1-3.7-47.9-11.2c-13.8-7.5-24.5-17.7-32-30.8c-7.6-13-11.4-28-11.4-44.9
			s3.7-31.8,11.1-44.9c7.4-13,17.5-23.2,30.4-30.6s27.5-11.1,43.7-11.1c16.4,0,31,3.6,43.6,10.9s22.5,17.5,29.6,30.6
			c7.2,13.1,10.7,28.5,10.7,46c0,1.3-0.1,2.8-0.2,4.5s-0.3,3.3-0.5,4.8h-144.5v-22.1H1485l-12.5,7.7c0.2-10.9-2-20.6-6.7-29.2
			c-4.7-8.5-11.2-15.2-19.4-20c-8.2-4.8-17.8-7.2-28.7-7.2c-10.7,0-20.2,2.4-28.5,7.2c-8.3,4.8-14.9,11.5-19.5,20.2
			c-4.7,8.7-7.1,18.5-7.1,29.6v5.1c0,11.3,2.6,21.4,7.9,30.3c5.2,8.9,12.5,15.8,22,20.7c9.4,4.9,20.2,7.4,32.4,7.4
			c10,0,19.2-1.7,27.4-5.1c8.2-3.4,15.4-8.5,21.6-15.4l17,19.9c-7.7,9-17.3,15.8-28.7,20.5C1450.7,260.6,1438,262.9,1423.9,262.9z"
			/>
		<path class="st2" d="M1544.4,261V23.2h30.8V261H1544.4z"/>
		<path class="st2" d="M1609.4,116.5V91.2h108.3v25.3H1609.4z M1638.3,261V76.1c0-16.7,4.9-30,14.6-39.9s23.6-14.9,41.5-14.9
			c6.6,0,13,0.8,19.1,2.4s11.3,4.1,15.5,7.5l-9.3,23.4c-3.2-2.6-6.8-4.5-10.9-5.9s-8.3-2.1-12.8-2.1c-9,0-15.8,2.5-20.5,7.5
			s-7.1,12.4-7.1,22.3v22.8l0.6,14.1V261H1638.3z"/>
		<path class="st2" d="M1819.7,262.9c-16.9,0-32-3.7-45.3-11.2c-13.4-7.5-23.9-17.8-31.6-30.9c-7.7-13.1-11.5-28-11.5-44.7
			c0-16.9,3.8-31.8,11.5-44.7s18.2-23.1,31.4-30.6c13.2-7.5,28.4-11.2,45.5-11.2c16.9,0,32,3.7,45.3,11.1
			c13.4,7.4,23.8,17.6,31.4,30.6s11.4,28,11.4,44.9s-3.8,31.8-11.4,44.9c-7.6,13-18.1,23.3-31.4,30.8
			C1851.7,259.2,1836.6,262.9,1819.7,262.9z M1819.7,236c10.9,0,20.7-2.5,29.3-7.4c8.7-4.9,15.4-11.9,20.4-21
			c4.9-9.1,7.4-19.6,7.4-31.6c0-12.2-2.5-22.7-7.4-31.6c-4.9-8.9-11.7-15.8-20.4-20.7c-8.7-4.9-18.4-7.4-29.3-7.4
			s-20.6,2.5-29.2,7.4c-8.5,4.9-15.4,11.8-20.5,20.7s-7.7,19.4-7.7,31.6c0,12,2.6,22.5,7.7,31.6s12,16.1,20.5,21
			C1799.1,233.6,1808.8,236,1819.7,236z"/>
		<path class="st2" d="M1925.8,261l73.1-94.9l-0.3,15.7L1929,91.2h34.3l53.2,69.9h-13.1l53.2-69.9h33.7l-70.5,91.3l0.3-16.3
			l73.7,94.9h-34.9l-56.1-74.4l12.5,1.9l-55.1,72.4H1925.8z"/>
	</g>
</g>
<g>
	<path class="st3" d="M389.3,391.2l-12.9,36.2l93.2,44.1l-44.1-93.2L389.3,391.2z"/>
	<path class="st3" d="M425.5,221.7l44.1-93.2l-93.2,44.1l12.9,36.2L425.5,221.7z"/>
	<path class="st3" d="M206.9,208.8l12.9-36.2l-93.2-44.1l44.1,93.2L206.9,208.8z"/>
	<path class="st3" d="M170.7,378.3l-44.1,93.2l93.2-44.1l-12.9-36.2L170.7,378.3z"/>
	<path class="st3" d="M554.1,300c-19.4-6.9-185.4-66.3-188.5-67.5C357.8,210.9,298.8,46,298.1,44c-7,19.7-66.4,185.6-67.5,188.5
		c-8,2.8-167.1,59.8-188.5,67.5c2.5,0.9,184.6,66,188.5,67.5c12,33.4,60.1,167.9,67.5,188.5c7.3-20.3,66.8-186.7,67.5-188.5
		C373.5,364.6,532.7,307.7,554.1,300L554.1,300z"/>
</g>
</svg>
